<svg id="Layer_1" data-name="Layer 1" xmlns="http://www.w3.org/2000/svg" viewBox="0 0 372.36 100.2"><defs><style>.cls-1{fill:#ec2024;}.cls-2,.cls-3{fill:#2c2f90;}.cls-3,.cls-5,.cls-6,.cls-7{stroke:#ed1c24;}.cls-3{stroke-width:0.82px;}.cls-4{fill:#fff;}.cls-5,.cls-6,.cls-7{fill:none;}.cls-5{stroke-width:0.99px;}.cls-6{stroke-width:2px;}.cls-7{stroke-width:0.76px;}</style></defs><title>logo-with-name-hover</title><rect class="cls-1" y="0.01" width="155.54" height="100.19" rx="15" ry="15"/><path class="cls-1" d="M28.74,0A18.09,18.09,0,0,1,27,6.19C22.5,16.69,11.25,17.07,0,18.28v81.91H119c-.15-6.88,2.35-13.62,8-18,8-6.57,18.19-5.15,28.54-3.9V0Z"/><path class="cls-2" d="M173.39,8.35h6.69L192.91,41H193L206,8.35h6.53V50H208V15.09h-.11L194.3,50h-2.73L178,15.05h-.11V50H173.4Z"/><path class="cls-2" d="M230.82,32,216.71,8.32h5.72l10.64,18.81L244,8.32h5.4L235.32,32V50h-4.49Z"/><path class="cls-2" d="M253.66,8.35h9.68c7.33,0,15.08,1.18,15.08,11.46,0,6-3.58,10-9.47,11L279.7,50h-5.5L263.93,31.3h-5.78V50h-4.49Zm4.49,18.34h4c5,0,11.45,0,11.45-6.88,0-6-4.76-6.88-9.15-6.88h-6.31Z"/><path class="cls-2" d="M286.34,8.35h4.49V50h-4.49Z"/><path class="cls-2" d="M312.54,8.35h4.22L332.86,50h-5.24l-3.85-10.19H304.84L300.94,50h-5.08Zm2,6.35h-.11l-7.86,20.45H322Z"/><path class="cls-2" d="M337.2,8.35h14.55c7.43,0,18.56,5.47,18.56,20.81S359.19,50,351.75,50H337.2Zm4.49,37h8.56c8.66,0,15.24-4.82,15.24-16.22s-6.58-16.22-15.24-16.22h-8.56Z"/><line class="cls-3" x1="173.67" y1="57.69" x2="369.67" y2="57.69"/><path class="cls-2" d="M185.07,70.77a5.47,5.47,0,0,0-4.68-2.21c-2.69,0-5.48,1.19-5.48,4,0,2.2,1.31,3.19,5.41,4.41s7.7,2.41,7.7,7.12-4.39,7-9,7c-3,0-6.17-.92-7.91-3.32l2.61-2a6.35,6.35,0,0,0,5.48,2.68c2.61,0,5.59-1.42,5.59-4.17,0-3-2.14-3.46-6.72-4.88-3.63-1.12-6.39-2.61-6.39-6.62,0-4.61,4.25-6.92,8.75-6.92a9.12,9.12,0,0,1,7.19,2.82Z"/><path class="cls-2" d="M191.57,78.51c0-7.26,5.63-12.62,13.43-12.62s13.43,5.36,13.43,12.62S212.8,91.13,205,91.13,191.57,85.77,191.57,78.51Zm23.6,0a10.17,10.17,0,1,0-10.34,10H205a9.8,9.8,0,0,0,10.16-9.43h0v-.57Z"/><path class="cls-2" d="M223.32,66.5h3V87.87h11.76v2.65H223.32Z"/><path class="cls-2" d="M260.75,81.36c0,5.22-2.61,9.77-9.69,9.77s-9.69-4.54-9.69-9.77V66.5h3V81c0,3.87,1.52,7.53,6.64,7.53s6.64-3.66,6.64-7.53V66.5h3Z"/><path class="cls-2" d="M284.27,69.15h-8.5V90.52h-3V69.15h-8.49V66.5h20Z"/><path class="cls-2" d="M287.85,66.5h3v24h-3Z"/><path class="cls-2" d="M295.8,78.51c0-7.26,5.63-12.62,13.43-12.62s13.43,5.36,13.43,12.62S317,91.13,309.23,91.13,295.8,85.77,295.8,78.51Zm23.6,0a10.17,10.17,0,1,0-10.34,10h.18a9.8,9.8,0,0,0,10.16-9.43h0q0-.29,0-.57Z"/><path class="cls-2" d="M327.56,66.5h3.85l14.88,20h.07v-20h3v24h-3.85L330.68,70.57h-.07V90.52h-3Z"/><path class="cls-2" d="M353.66,88,368.5,69.17H353.87V66.52H372.2V69L357.36,87.89h15v2.65h-18.7Z"/><path class="cls-4" d="M53.59,72.57H44.2L27.67,40H27.5V72.56h-13V27.83H36.3L48.67,53.89l.18.23,12.4-26.29H83V72.56H70.09V40h-.23Z"/><path class="cls-4" d="M143.11,58.85q0,7.22-3.22,10.47t-10.33,3.24h-49V62.89h43.11a17.74,17.74,0,0,0,2.19-.11,6.35,6.35,0,0,0,1.81-.49,3.08,3.08,0,0,0,1.38-1.1,3.31,3.31,0,0,0,.51-1.93,3.25,3.25,0,0,0-.71-2.2A4.07,4.07,0,0,0,127,55.87a9.6,9.6,0,0,0-2.37-.46c-.81,0-1.81-.08-3-.08q-1.08-.06-6.09-.22l-9.85-.34-3.76-.17c-1.18-.06-2.18-.13-3-.2-4.2-.23-7.22-1.61-9-4.15Q88,47.37,88,41.77c0-4.63.88-8.1,2.68-10.42s4.74-3.47,8.88-3.47h57v9.67H107a16.84,16.84,0,0,0-2,.11,5.59,5.59,0,0,0-1.71.49,3,3,0,0,0-1.28,1.1,3.5,3.5,0,0,0-.48,1.94A2.78,2.78,0,0,0,103,44a10.81,10.81,0,0,0,4.27.68h2.34c.68,0,2.67.12,6,.23q6.83.23,9.47.34l4.47.21a27.51,27.51,0,0,1,3,.2q6.24.34,8.76,4.56A18.52,18.52,0,0,1,143.11,58.85Z"/><path class="cls-5" d="M21,73.41l-.06-37.89A1.08,1.08,0,0,1,22,34.44h9.08a1.9,1.9,0,0,1,1.56,1L48.31,66.68c.26.53.7.53,1,0l16-31.25a1.93,1.93,0,0,1,1.56-1h8.32a1.08,1.08,0,0,1,1.07,1.07v31a1.08,1.08,0,0,0,1.07,1.08l49.77.08c13.8,0,11.69-17.26,0-17.26-6.21,0-25.59-1-25.59-1-9.36,0-9.88-16.56.93-16.59h53.19"/><path class="cls-6" d="M129.31,44.41c18.95.9,19.51,29-.17,29.21"/><path class="cls-7" d="M101.09,27C83,27.09,82,55.22,101.71,55.44"/></svg>