<svg id="32c8a763-d859-4cc2-8d44-ead4ffaf84ea" data-name="Layer 1" xmlns="http://www.w3.org/2000/svg" viewBox="0 0 256.62 270.63"><title>smtp-mailer</title><path d="M669.22,312.46l-79.07,19c-1.4.34-2.55-.18-2.55-1.16v-1.57c0-1,1.15-2.07,2.55-2.44l79.07-20.87a1.87,1.87,0,0,1,2.55,1.79v2.17A3.41,3.41,0,0,1,669.22,312.46Z" transform="translate(-555.23 -265.78)" style="fill:#373449"/><path d="M607.26,469.12l187,67.11c14.3,2.13,18.4-15,17.41-26.1L811.5,343.8c-11.3-10.61-22.82-20.77-34.82-30.58-2.44-19.43-15.86-32.6-36.26-26.35a411.26,411.26,0,0,0-39.74-21.09c-33.52,37.69-69.58,71.64-112.27,98.75V450.8S589.64,461.25,607.26,469.12Z" transform="translate(-555.23 -265.78)" style="fill:#373449"/><path d="M618.73,468.2c26.57-12.81,49.53-29.23,71.7-48.6,0,0,9.22-7.83,18,2,26.72,32,50.28,66.06,72.32,101.46Z" transform="translate(-555.23 -265.78)" style="fill:#d63655"/><path d="M788.77,524.94c-16.7-27.49-34.32-54.24-53.47-80.08,0,0-2-1.51,0-3.82C761,415.43,783.66,387.67,805,358.33V513S802.7,532.64,788.77,524.94Z" transform="translate(-555.23 -265.78)" style="fill:#e94861"/><path d="M665,431.63a301.85,301.85,0,0,1-55.11,33.43s-13.52-4.62-14.54-15.22V370.67C621.19,388.36,643.64,408.84,665,431.63Z" transform="translate(-555.23 -265.78)" style="fill:#d63655"/><path d="M631.23,390.69V346l85-12.47,2-2.58c-.2-12.52,6.73-26.32,16.19-32.5,15.85-10.34,34.35-1.55,35.85,20.34v73c-13,15.78-26.34,31.22-41,45.49-6.15-8.05-9.22-11.92-15.37-19.36-8-9.38-22.18-11.08-31.34-1.64-5,5.12-7.5,7.57-12.5,12.24C657.72,415.25,644.92,402.68,631.23,390.69Z" transform="translate(-555.23 -265.78)" style="fill:#fffefd"/><path d="M702.83,335.2a67.33,67.33,0,0,1,12.49-34.38L614.53,325.2A40.16,40.16,0,0,0,593,351.4Z" transform="translate(-555.23 -265.78)" style="fill:#373449"/><path d="M624.67,385.54V346.78l-2,.31c-8,6.31-16.29,12.36-24.79,17.93C607.13,371.59,615.88,378.31,624.67,385.54Z" transform="translate(-555.23 -265.78)" style="fill:#d63655"/><path d="M776.88,324.89v58.52c9.08-11.45,17.85-23.07,26.43-34.9Q790.52,336.26,776.88,324.89Z" transform="translate(-555.23 -265.78)" style="fill:#d63655"/><path d="M670.77,305.6,729,290.36c-9.61-5.68-19.11-10.89-29.09-15.87C690.4,285.09,680.83,295.55,670.77,305.6Z" transform="translate(-555.23 -265.78)" style="fill:#d63655"/><path d="M726.35,342.91c.84-15.46,6.77-35.53,24.31-38.66L769.78,319c.09,0-12-30-27.59-25-15,4.8-25.16,22.35-25.31,39.31q-42.79,6.18-85.58,12.41v8.19Z" transform="translate(-555.23 -265.78)" style="fill:#f2f0e7"/><path d="M770.33,378.63v12.56c-13.1,15.92-26.58,31.5-41.36,45.89-6.85-8.77-10.28-13-17.14-21-7.37-7.12-17.62-7.43-26.39-2.19-6.31,6.11-9.47,9-15.78,14.44-12.25-13.15-24.88-25.62-38.36-37.52v-8.65a467,467,0,0,1,37.82,35.14c5.66-4.06,8.49-6.2,14.14-10.71,8.61-8.65,22.21-7.58,31,.57,6.1,6.95,9.14,10.57,15.24,18.1C744.09,410.56,757.39,394.76,770.33,378.63Z" transform="translate(-555.23 -265.78)" style="fill:#f2f0e7"/><path d="M738.58,438.42c16.26,24.21,31.33,49,45.68,74.44l8.81,2.74s7,2.84,11.67-6V358.91C784.42,387,762.83,413.63,738.58,438.42Z" transform="translate(-555.23 -265.78)" style="fill:#e94861"/><path d="M638.36,467.48l133.3,41.46c-18.88-29.57-38.82-58.34-61.24-85.35a15.28,15.28,0,0,0-15.62,4.7A352,352,0,0,1,638.36,467.48Z" transform="translate(-555.23 -265.78)" style="fill:#e94861"/><path d="M595.38,449.25V370.67c3.28,2.1,4.92,3.19,8.19,5.46V455.9S597.63,452.41,595.38,449.25Z" transform="translate(-555.23 -265.78)" style="fill:#e94861"/><path d="M603.57,376.28a441.18,441.18,0,0,1,56.34,50,336.64,336.64,0,0,1-45.27,33.68s-8.81-1.52-11.07-4.2Z" transform="translate(-555.23 -265.78)" style="fill:#d63655"/><path d="M603.78,361c7.62-5.16,11.43-7.92,19.05-13.79l2-.3v29.47A240.44,240.44,0,0,0,603.78,361Z" transform="translate(-555.23 -265.78)" style="fill:#e94861"/><path d="M677.73,298.75C685.26,291,692.47,283,699.65,275A248.57,248.57,0,0,1,722,286.44Z" transform="translate(-555.23 -265.78)" style="fill:#e94861"/><path d="M785.08,331.56c4.83,4.38,7.25,6.65,12.08,11.32-4.83,6.83-7.25,10.16-12.08,16.64Z" transform="translate(-555.23 -265.78)" style="fill:#e94861"/><path d="M627.54,464.28l12.09,3.77a354.22,354.22,0,0,0,55.31-39.25s8-8.08,15.16-5.25c0,0-7.17-10.63-17.62-5.41C672.17,436.09,651.44,451.44,627.54,464.28Z" transform="translate(-555.23 -265.78)" style="fill:#e94861"/><path d="M805.11,462.73,790.18,460c-1.3-.23-2.37-1.85-2.37-3.59v-2.78c0-1.74,1.07-3,2.37-2.79l14.93,2.38c1.3.2,2.37,1.86,2.37,3.68v2.92C807.48,461.67,806.41,463,805.11,462.73Z" transform="translate(-555.23 -265.78)" style="fill:#373449"/><path d="M781.89,458.53,773.24,457c-1.3-.23-2.37-1.79-2.37-3.46v-2.67c0-1.67,1.07-2.86,2.37-2.66l8.65,1.38c1.3.2,2.37,1.78,2.37,3.5v2.77C784.26,457.55,783.19,458.77,781.89,458.53Z" transform="translate(-555.23 -265.78)" style="fill:#373449"/><path d="M724.81,443l-15.22-2.52a2.67,2.67,0,0,1-2.08-2.59v-2a1.82,1.82,0,0,1,2.08-1.93l15.22,2.23a2.69,2.69,0,0,1,2.09,2.68v2.09A1.86,1.86,0,0,1,724.81,443Z" transform="translate(-555.23 -265.78)" style="fill:#373449"/><path d="M701.67,439.12l-8.95-1.48a2.61,2.61,0,0,1-2.08-2.48v-1.88a1.78,1.78,0,0,1,2.08-1.83l8.95,1.31a2.6,2.6,0,0,1,2.08,2.53v2A1.78,1.78,0,0,1,701.67,439.12Z" transform="translate(-555.23 -265.78)" style="fill:#373449"/><path d="M727.07,443.34l-17.48-2.9a2.67,2.67,0,0,1-2.08-2.59v-2a1.82,1.82,0,0,1,2.08-1.93l17.48,2.56a2.71,2.71,0,0,1,2.08,2.69v2.11A1.86,1.86,0,0,1,727.07,443.34Z" transform="translate(-555.23 -265.78)" style="fill:#373449"/><path d="M742.31,465.74l-13-2.85a3.13,3.13,0,0,1-2.21-3v-2.21a1.89,1.89,0,0,1,2.21-2.07l13,2.59a3.12,3.12,0,0,1,2.21,3.07v2.32C744.52,465,743.53,466,742.31,465.74Z" transform="translate(-555.23 -265.78)" style="fill:#373449"/><path d="M759.25,489.81,717.5,478.47a3.37,3.37,0,0,1-2.28-3.13v-2.21a1.8,1.8,0,0,1,2.28-1.93l41.75,10.47a3.54,3.54,0,0,1,2.27,3.41v2.51C761.52,489.15,760.5,490.15,759.25,489.81Z" transform="translate(-555.23 -265.78)" style="fill:#373449"/><path d="M711.1,476.73l-8.76-2.38a3.3,3.3,0,0,1-2.28-3v-2.11a1.76,1.76,0,0,1,2.28-1.82l8.76,2.19a3.3,3.3,0,0,1,2.28,3.07v2.2A1.77,1.77,0,0,1,711.1,476.73Z" transform="translate(-555.23 -265.78)" style="fill:#373449"/><path d="M689.39,470.83l-17.17-4.67a3.13,3.13,0,0,1-2.27-2.79v-1.92a1.69,1.69,0,0,1,2.27-1.61l17.17,4.31a3.15,3.15,0,0,1,2.27,2.9v2.06A1.7,1.7,0,0,1,689.39,470.83Z" transform="translate(-555.23 -265.78)" style="fill:#373449"/><path d="M618.5,410.18l-5.06-.53a2.58,2.58,0,0,1-2.49-2.17v-1.69c0-1.05,1.12-1.82,2.49-1.71l5.06.42a2.53,2.53,0,0,1,2.49,2.19v1.76C621,409.54,619.87,410.32,618.5,410.18Z" transform="translate(-555.23 -265.78)" style="fill:#373449"/><path d="M646.36,413.1,626.14,411a2.62,2.62,0,0,1-2.49-2.27v-1.78a2.09,2.09,0,0,1,2.49-1.81l20.22,1.66a2.62,2.62,0,0,1,2.49,2.41v2A2.1,2.1,0,0,1,646.36,413.1Z" transform="translate(-555.23 -265.78)" style="fill:#373449"/><path d="M591.16,367.41l-34,2.59c-1.08.08-2-.37-2-1v-1c0-.64.88-1.25,2-1.35l34-3.2c1.08-.1,2,.44,2,1.21v1.23C593.13,366.63,592.24,367.33,591.16,367.41Z" transform="translate(-555.23 -265.78)" style="fill:#373449"/><path d="M589.83,377.9l-19.93.57c-1.26,0-2.28-.58-2.28-1.37v-1.26c0-.79,1-1.48,2.28-1.55l19.93-1c1.25-.06,2.27.61,2.27,1.5v1.42C592.1,377.11,591.08,377.86,589.83,377.9Z" transform="translate(-555.23 -265.78)" style="fill:#373449"/><path d="M590.85,444.05l-17.78-4.83c-1.25-.34-2.27-1.27-2.27-2.07v-1.29c0-.8,1-1.2,2.27-.88l17.78,4.46c1.25.31,2.28,1.29,2.28,2.18v1.43C593.13,443.94,592.1,444.39,590.85,444.05Z" transform="translate(-555.23 -265.78)" style="fill:#373449"/><path d="M565.35,437.12,557.5,435c-1.25-.34-2.27-1.22-2.27-2v-1.19c0-.73,1-1.08,2.27-.77l7.85,2c1.25.31,2.27,1.21,2.27,2v1.27C567.62,437.09,566.6,437.46,565.35,437.12Z" transform="translate(-555.23 -265.78)" style="fill:#373449"/><path d="M581.76,333.48l-8,1.92c-1.4.34-2.55-.13-2.55-1v-1.45c0-.9,1.15-1.94,2.55-2.31l8-2.11c1.41-.37,2.56.11,2.56,1.07v1.54C584.32,332.08,583.17,333.14,581.76,333.48Z" transform="translate(-555.23 -265.78)" style="fill:#373449"/><path d="M701.54,273.49l-32.86,11c-1.33.44-2.42-.22-2.42-1.48v-2a3.72,3.72,0,0,1,2.42-3.15l32.86-11.73a1.7,1.7,0,0,1,2.41,1.72v2.27A3.8,3.8,0,0,1,701.54,273.49Z" transform="translate(-555.23 -265.78)" style="fill:#373449"/><path d="M658.93,287.75l-9.51,3.18c-1.33.45-2.42-.15-2.42-1.32v-1.89a3.64,3.64,0,0,1,2.42-3l9.51-3.39c1.33-.47,2.41.15,2.41,1.38v2A3.58,3.58,0,0,1,658.93,287.75Z" transform="translate(-555.23 -265.78)" style="fill:#373449"/><path d="M711.94,327.22a51.59,51.59,0,0,1,12.5-28.49L623.65,323.08c-9.5,4.09-18.68,12.19-21.51,22.48Z" transform="translate(-555.23 -265.78)" style="fill:#fffefd"/><path d="M676.07,388.26l-6-.08a.87.87,0,0,1-.78-.47c-4.86-9.19-7.29-13.6-12.14-22h-.13V387.2a.83.83,0,0,1-.88.79l-8-.1a.86.86,0,0,1-.89-.8V359a.94.94,0,0,1,.89-.86l14.89-1.4a.78.78,0,0,1,.79.4c3.61,6.8,5.42,10.3,9,17.54l.13.16c3.62-7.53,5.43-11.4,9.05-19.38a1,1,0,0,1,.8-.58l14.85-1.39a.81.81,0,0,1,.89.84v33.28a.89.89,0,0,1-.89.91l-7.9-.1a.92.92,0,0,1-.89-.91V363.61h-.17c-4.77,10-7.16,14.87-11.94,24.18A.86.86,0,0,1,676.07,388.26Z" transform="translate(-555.23 -265.78)" style="fill:#d63655"/><path d="M743.67,376.91c0,4.29-.8,7.42-2.41,9.33s-4.19,2.83-7.74,2.78l-36.34-.48a.39.39,0,0,1-.36-.39v-6.79a.39.39,0,0,1,.36-.39l31.93-.31a12.78,12.78,0,0,0,1.64-.11,4.89,4.89,0,0,0,.91-.24,2.82,2.82,0,0,0,1.76-1.86,3.27,3.27,0,0,0,.1-1,3.11,3.11,0,0,0-.53-1.9,2.89,2.89,0,0,0-1.39-1,6,6,0,0,0-1.77-.35c-.61,0-1.36,0-2.25,0q-.81,0-4.56-.06l-7.38-.07-2.81-.05c-.89,0-1.64-.06-2.25-.1-3.15-.09-5.41-1.13-6.74-3.11q-1.46-2.24-1.45-6.67c0-3.68.66-6.48,2-8.45s3.55-3.11,6.65-3.4l42.33-4a.38.38,0,0,1,.37.42v8a.46.46,0,0,1-.37.48l-36.76,2.59a10.67,10.67,0,0,0-1.49.2,4,4,0,0,0-1.18.43,2.68,2.68,0,0,0-1.17,1.25,3.18,3.18,0,0,0-.25,1.39,2.2,2.2,0,0,0,1.1,2.24,7.38,7.38,0,0,0,3.2.39l1.75-.1c.51,0,2,0,4.49,0,3.41-.06,5.78-.08,7.1-.09h3.35a16.72,16.72,0,0,1,2.24.06c3.12,0,5.31,1.27,6.56,3.72A18.74,18.74,0,0,1,743.67,376.91Z" transform="translate(-555.23 -265.78)" style="fill:#d63655"/><path d="M652.2,388.51c0-10.22,0-15.32,0-25.54a.85.85,0,0,1,.8-.79l6.87-.53a1.3,1.3,0,0,1,1.18.6c4.74,8.33,7.11,12.67,11.85,21.71.2.38.53.38.76,0,4.84-9.07,7.26-13.79,12.11-23.59a1.59,1.59,0,0,1,1.18-.84l6.29-.5a.75.75,0,0,1,.81.77v24a.83.83,0,0,0,.81.84l37.65.12c10.44,0,8.85-15.31,0-15-4.69.19-19.36,0-19.36,0-7.08.29-7.47-13,.71-13.67l40.24-3.29" transform="translate(-555.23 -265.78)" style="fill:none;stroke:#fff;stroke-width:0.9900000095367432px"/></svg>