<svg id="2d1860f9-754b-4e8d-ac1c-336cc76f78c5" data-name="Layer 1" xmlns="http://www.w3.org/2000/svg" viewBox="0 0 1334.57 554.37"><title>smtp-pro-version</title><g style="opacity:0.8"><path d="M1089.14,347.51,1033,334c-1.4-.33-2.55-2.11-2.55-3.95v-.33c0-1.84,1.15-3,2.55-2.67l56.16,14.82a3.64,3.64,0,0,1,2.55,3.33v.26A2,2,0,0,1,1089.14,347.51Z" transform="translate(-15.72 -76.11)" style="fill:#373449"/><path d="M1044.74,506.51l136.13-48.85s13.57-5.59,12.67-14.4l-.15-50.7A225.8,225.8,0,0,1,1168,376.94c-3.26-11.6-15.26-18.61-26.39-21.08-10.13-8.92-19.59-18.44-28.92-28.19-30.74,10.44-57.23,29.56-81.71,50.39V495.68S1031.92,509.26,1044.74,506.51Z" transform="translate(-15.72 -76.11)" style="fill:#373449"/><path d="M1053.09,497.93c15.9-23.95,32.67-47.23,52.18-68.4,0,0,6.71-6.23,13.12-1.45,16.33,12.31,33.15,23.24,52.64,29.93Z" transform="translate(-15.72 -76.11)" style="fill:#d63655"/><path d="M1176.84,455.74c-14-4.58-26.43-11.52-38.91-19.25,0,0-1.49-.39,0-2,15.63-14.43,31.83-27.82,50.69-37.91v49.62S1187,453.42,1176.84,455.74Z" transform="translate(-15.72 -76.11)" style="fill:#e94861"/><path d="M1086.79,443.74c-14.39,18.08-27.56,36.79-40.11,56.18,0,0-9.84,3.36-10.59-9.8V387.31C1051.59,407.44,1067.81,426.77,1086.79,443.74Z" transform="translate(-15.72 -76.11)" style="fill:#d63655"/><path d="M1062.19,411.51v-45.6l61.87,9.08,1.49-1.11s.29-13.12,11.78-13.92c9.91-.68,23.9,6.18,26.09,18V408a265.52,265.52,0,0,0-29.82,25.63c-4.47-3.21-6.71-4.92-11.18-8.57,0,0-10-10.29-22.81,3.28-3.64,4.51-5.46,6.84-9.1,11.67A375.39,375.39,0,0,1,1062.19,411.51Z" transform="translate(-15.72 -76.11)" style="fill:#fffefd"/><path d="M1114.29,373.37s.3-11.79,9.1-18L1050,337.66c-10.23,1.74-15,14.89-15.65,23.92Z" transform="translate(-15.72 -76.11)" style="fill:#373449"/><path d="M1057.41,406.31V365l-1.49-.22c-7.21,5.77-10.82,8.89-18,15.57C1044.22,389.17,1050.58,397.9,1057.41,406.31Z" transform="translate(-15.72 -76.11)" style="fill:#d63655"/><path d="M1168.19,381.57v23a155.13,155.13,0,0,1,19.24-11.28A202.38,202.38,0,0,1,1168.19,381.57Z" transform="translate(-15.72 -76.11)" style="fill:#d63655"/><path d="M1091,342.83l42.34,11.09c-7.31-6.67-14.41-13.72-21.17-20.95A165.9,165.9,0,0,0,1091,342.83Z" transform="translate(-15.72 -76.11)" style="fill:#d63655"/><path d="M1131.42,382.07s.59-19.18,17.69-14.8L1163,378c.08,0-11.16-16.28-20.07-18,0,0-18.56-2.89-18.43,15q-31.14-4.65-62.29-9.32V374Z" transform="translate(-15.72 -76.11)" style="fill:#f2f0e7"/><path d="M1163.42,402.59v5.18a263.5,263.5,0,0,0-30.1,25.84c-5-3.48-7.48-5.35-12.47-9.37,0,0-8.12-7-19.21,2-4.59,5.25-6.89,8-11.48,13.75a332.24,332.24,0,0,1-27.93-28.36v-8.81a347.62,347.62,0,0,0,27.53,28.49c4.12-4.2,6.18-6.22,10.3-10.09,0,0,9.11-10.4,22.57-2.61,4.44,3.62,6.65,5.32,11.09,8.5A254.34,254.34,0,0,1,1163.42,402.59Z" transform="translate(-15.72 -76.11)" style="fill:#f2f0e7"/><path d="M1140.31,432.53a164.53,164.53,0,0,0,33.25,20.38l6.41-2a18.86,18.86,0,0,0,8.5-5.75V396.77C1170.65,406.38,1155.22,419,1140.31,432.53Z" transform="translate(-15.72 -76.11)" style="fill:#e94861"/><path d="M1067.37,485.94l97-30.18c-16.3-6.45-30.65-16.28-44.57-26.75,0,0-6.21-.81-11.37,5.73A584,584,0,0,0,1067.37,485.94Z" transform="translate(-15.72 -76.11)" style="fill:#e94861"/><path d="M1036.09,489.36V387.31c2.39,3.13,3.58,4.66,6,7.66v97.9S1037.73,492.13,1036.09,489.36Z" transform="translate(-15.72 -76.11)" style="fill:#e94861"/><path d="M1042.06,395.16c12.75,16,26,31.4,41,45.33-11.88,16.31-22.6,33.33-33,50.63,0,0-6.41,3.49-8,1.56Z" transform="translate(-15.72 -76.11)" style="fill:#d63655"/><path d="M1042.21,376.45c5.54-4.83,8.32-7.12,13.86-11.43l1.49.22v31.33C1051.42,389,1048.35,384.92,1042.21,376.45Z" transform="translate(-15.72 -76.11)" style="fill:#e94861"/><path d="M1096,340.36a162,162,0,0,1,16-7.16c6.5,6.8,9.75,10,16.26,16.12Z" transform="translate(-15.72 -76.11)" style="fill:#e94861"/><path d="M1174.16,385.36c3.52,2.3,5.28,3.4,8.79,5.48-3.51,1.83-5.27,2.8-8.79,4.89Z" transform="translate(-15.72 -76.11)" style="fill:#e94861"/><path d="M1059.5,488.56l8.8-2.74c12.56-17.63,25.6-34.8,40.25-50.76,0,0,5.82-6.64,11-6,0,0-5.22-6-12.82-.83A573.89,573.89,0,0,0,1059.5,488.56Z" transform="translate(-15.72 -76.11)" style="fill:#e94861"/><path d="M1188.09,430.16l-9.58,1.74c-1.3.23-2.36-.29-2.36-1.16v-.15c0-.87,1.06-1.75,2.36-2l9.58-1.52c1.3-.2,2.37.27,2.37,1.06v.14C1190.46,429.09,1189.39,429.93,1188.09,430.16Z" transform="translate(-15.72 -76.11)" style="fill:#373449"/><path d="M1171.19,433.22l-5,.9c-1.3.24-2.37-.34-2.37-1.28v-.16c0-.94,1.07-1.88,2.37-2.09l5-.79c1.31-.21,2.37.34,2.37,1.23v.15C1173.56,432.07,1172.5,433,1171.19,433.22Z" transform="translate(-15.72 -76.11)" style="fill:#373449"/><path d="M1129.73,437.77l-10,1.65a1.66,1.66,0,0,1-2.08-1.58v-.19a2.42,2.42,0,0,1,2.08-2.23l10-1.46a1.66,1.66,0,0,1,2.08,1.49v.18A2.4,2.4,0,0,1,1129.73,437.77Z" transform="translate(-15.72 -76.11)" style="fill:#373449"/><path d="M1112.88,440.57l-5.37.89a1.71,1.71,0,0,1-2.09-1.69v-.2a2.49,2.49,0,0,1,2.09-2.35l5.37-.79a1.72,1.72,0,0,1,2.09,1.65v.19A2.5,2.5,0,0,1,1112.88,440.57Z" transform="translate(-15.72 -76.11)" style="fill:#373449"/><path d="M1131.37,437.5l-11.59,1.92a1.66,1.66,0,0,1-2.08-1.58v-.19a2.42,2.42,0,0,1,2.08-2.23l11.59-1.7a1.65,1.65,0,0,1,2.08,1.48v.17A2.4,2.4,0,0,1,1131.37,437.5Z" transform="translate(-15.72 -76.11)" style="fill:#373449"/><path d="M1142.43,445.58l-8.26,1.82c-1.22.26-2.21-.37-2.21-1.42v-.18a2.66,2.66,0,0,1,2.21-2.34l8.26-1.64c1.22-.24,2.21.36,2.21,1.33v.18A2.67,2.67,0,0,1,1142.43,445.58Z" transform="translate(-15.72 -76.11)" style="fill:#373449"/><path d="M1154.74,452l-29.15,7.92c-1.25.34-2.28-.3-2.28-1.43v-.2a3,3,0,0,1,2.28-2.61l29.15-7.31c1.25-.32,2.27.19,2.27,1.13v.17A2.91,2.91,0,0,1,1154.74,452Z" transform="translate(-15.72 -76.11)" style="fill:#373449"/><path d="M1119.7,461.48l-5.14,1.39a1.65,1.65,0,0,1-2.28-1.53v-.21a3,3,0,0,1,2.28-2.73l5.14-1.29a1.65,1.65,0,0,1,2.27,1.49v.2A3.08,3.08,0,0,1,1119.7,461.48Z" transform="translate(-15.72 -76.11)" style="fill:#373449"/><path d="M1103.9,465.77l-11.26,3.06a1.72,1.72,0,0,1-2.28-1.75v-.24a3.19,3.19,0,0,1,2.28-2.94l11.26-2.82a1.69,1.69,0,0,1,2.27,1.64v.22A3.16,3.16,0,0,1,1103.9,465.77Z" transform="translate(-15.72 -76.11)" style="fill:#373449"/><path d="M1052.24,433.78l-2.33.24c-1.37.14-2.49-1.12-2.49-2.8v-.3a3.12,3.12,0,0,1,2.49-3.27l2.33-.19a2.52,2.52,0,0,1,2.49,2.78v.29A3.17,3.17,0,0,1,1052.24,433.78Z" transform="translate(-15.72 -76.11)" style="fill:#373449"/><path d="M1072.52,431.65l-13.36,1.4a2.44,2.44,0,0,1-2.49-2.7v-.29a3.06,3.06,0,0,1,2.49-3.17l13.36-1.09a2.4,2.4,0,0,1,2.49,2.56v.27A3,3,0,0,1,1072.52,431.65Z" transform="translate(-15.72 -76.11)" style="fill:#373449"/><path d="M1032.49,382.39l-23.66-1.8c-1.08-.09-2-1.4-2-2.93v-.27c0-1.52.88-2.69,2-2.58l23.66,2.23a2.58,2.58,0,0,1,2,2.71V380C1034.45,381.4,1033.57,382.47,1032.49,382.39Z" transform="translate(-15.72 -76.11)" style="fill:#373449"/><path d="M1031.43,396.35l-13.27-.38c-1.25,0-2.27-1.47-2.27-3.18v-.31c0-1.71,1-3.06,2.27-3l13.27.66c1.25.06,2.28,1.43,2.28,3.05v.29C1033.71,395.09,1032.68,396.39,1031.43,396.35Z" transform="translate(-15.72 -76.11)" style="fill:#373449"/><path d="M1032.18,485.26l-11.71,3.18c-1.25.34-2.27-.77-2.27-2.47v-.31c0-1.7,1-3.35,2.27-3.66l11.71-2.94c1.25-.31,2.27.75,2.27,2.36v.29A3.72,3.72,0,0,1,1032.18,485.26Z" transform="translate(-15.72 -76.11)" style="fill:#373449"/><path d="M1013.62,490.3l-4.48,1.22c-1.25.34-2.27-.82-2.27-2.59v-.31c0-1.77,1-3.47,2.27-3.78l4.48-1.12c1.25-.31,2.27.83,2.27,2.54v.31C1015.89,488.28,1014.87,490,1013.62,490.3Z" transform="translate(-15.72 -76.11)" style="fill:#373449"/><path d="M1025.48,332.21l-4.42-1.06c-1.41-.34-2.56-2.18-2.56-4.09v-.34c0-1.92,1.15-3.18,2.56-2.81l4.42,1.17c1.41.37,2.56,2.19,2.56,4.05v.33C1028,331.31,1026.89,332.55,1025.48,332.21Z" transform="translate(-15.72 -76.11)" style="fill:#373449"/><path d="M1112.7,332.88l-22.6-7.57a3.78,3.78,0,0,1-2.42-3.35v-.25a1.69,1.69,0,0,1,2.42-1.69l22.6,8.07a3.67,3.67,0,0,1,2.41,3.11v.23C1115.11,332.67,1114,333.32,1112.7,332.88Z" transform="translate(-15.72 -76.11)" style="fill:#373449"/><path d="M1081.69,322.5l-5.61-1.88a3.89,3.89,0,0,1-2.41-3.5v-.27a1.73,1.73,0,0,1,2.41-1.83l5.61,2a3.91,3.91,0,0,1,2.41,3.45v.25A1.74,1.74,0,0,1,1081.69,322.5Z" transform="translate(-15.72 -76.11)" style="fill:#373449"/><path d="M1120.93,370.33a16.17,16.17,0,0,1,9.09-13.25l-73.35-17.73s-12.08-.93-15.66,17.64Z" transform="translate(-15.72 -76.11)" style="fill:#fffefd"/></g><g style="opacity:0.8"><path d="M255.62,346.39l-56.16,13.5c-1.4.34-2.55-.19-2.55-1.16v-.18c0-1,1.15-2.07,2.55-2.45l56.16-14.81a1.87,1.87,0,0,1,2.55,1.78v.25A3.39,3.39,0,0,1,255.62,346.39Z" transform="translate(-15.72 -76.11)" style="fill:#373449"/><path d="M211.22,460.24l136.13,48.85s13.57,2.91,12.67-19L359.87,369c-8.29-7.72-16.6-15-25.35-22.25-1.55-13.67-11.74-24.5-26.39-19.18-9.44-5.59-18.81-11-28.92-15.35-24.38,27.24-50.5,52.53-81.71,71.88v62.79S198.4,454.51,211.22,460.24Z" transform="translate(-15.72 -76.11)" style="fill:#373449"/><path d="M219.57,459.57C239,451,255.77,438,271.75,424.2c0,0,6.71-5.69,13.12,1.46,19.39,23.4,36.53,48.08,52.64,73.84Z" transform="translate(-15.72 -76.11)" style="fill:#d63655"/><path d="M343.32,500.87c-12.17-20-24.84-39.58-38.91-58.28,0,0-1.49-1.1,0-2.78C323.07,421,339.48,401,355.1,379.61v112.6S353.46,506.48,343.32,500.87Z" transform="translate(-15.72 -76.11)" style="fill:#e94861"/><path d="M253.27,433a182.85,182.85,0,0,1-40.11,24.33s-9.84-3.36-10.59-11.07V388.59C221.33,401.63,237.55,416.37,253.27,433Z" transform="translate(-15.72 -76.11)" style="fill:#d63655"/><path d="M228.66,403.17V370.63l61.88-9.08c.6-.74.89-1.12,1.49-1.87,0,0-.41-15.58,11.78-23.65,11.35-7.52,25.49-1,26.09,14.8V404c-9.53,11.49-19.34,22.47-29.82,33.11-4.47-5.86-6.71-8.67-11.18-14.09,0,0-10-12.07-22.81-1.2-3.64,3.73-5.46,5.52-9.1,8.92A310.79,310.79,0,0,0,228.66,403.17Z" transform="translate(-15.72 -76.11)" style="fill:#fffefd"/><path d="M280.77,362.77a49.42,49.42,0,0,1,9.1-25L216.51,355.5a28.83,28.83,0,0,0-15.65,19.07Z" transform="translate(-15.72 -76.11)" style="fill:#373449"/><path d="M223.89,399.42V371.21l-1.49.22c-7.21,5.67-10.82,8.28-18,13.05A180.05,180.05,0,0,1,223.89,399.42Z" transform="translate(-15.72 -76.11)" style="fill:#d63655"/><path d="M334.67,355.27v42.6c6.7-8.26,13-16.81,19.24-25.4C346.21,365.1,342.37,361.66,334.67,355.27Z" transform="translate(-15.72 -76.11)" style="fill:#d63655"/><path d="M257.44,341.23l42.34-11.09a183.34,183.34,0,0,0-21.17-11.55C271.85,326.37,264.76,334,257.44,341.23Z" transform="translate(-15.72 -76.11)" style="fill:#d63655"/><path d="M297.9,368.39c.38-11.09,5.06-26,17.69-28.14L329.5,351c.08,0-8.31-22.3-20.07-18.19-11,3.84-18.66,16.42-18.43,28.61q-31.14,4.5-62.29,9v6Z" transform="translate(-15.72 -76.11)" style="fill:#f2f0e7"/><path d="M329.9,394.38v9.15c-9.62,11.59-19.52,22.67-30.1,33.4-5-6.39-7.48-9.44-12.47-15.28,0,0-8.12-8.55-19.21-1.6-4.59,4.45-6.89,6.55-11.48,10.51a313,313,0,0,0-27.93-27.31V397a294.58,294.58,0,0,1,27.53,25.57c4.12-2.95,6.18-4.51,10.3-7.79,0,0,9.11-11.08,22.57.41,4.44,5.06,6.65,7.69,11.09,13.17C310.62,417.39,320.4,406.13,329.9,394.38Z" transform="translate(-15.72 -76.11)" style="fill:#f2f0e7"/><path d="M306.79,437.9c12,17.5,22.79,35.74,33.25,54.18l6.41,2s5.07,2.07,8.5-4.39V380C340.13,400.4,324.64,420.09,306.79,437.9Z" transform="translate(-15.72 -76.11)" style="fill:#e94861"/><path d="M233.85,459.05l97,30.18a678.85,678.85,0,0,0-44.57-62.12,11.12,11.12,0,0,0-11.37,3.42C262,441.3,248.78,451.13,233.85,459.05Z" transform="translate(-15.72 -76.11)" style="fill:#e94861"/><path d="M202.57,445.79v-57.2c2.39,1.53,3.58,2.33,6,4v58.06S204.21,448.08,202.57,445.79Z" transform="translate(-15.72 -76.11)" style="fill:#e94861"/><path d="M208.54,392.68a345.22,345.22,0,0,1,41,36.37c-10.45,9-21,17.55-32.95,24.51,0,0-6.41-1.1-8.05-3.05Z" transform="translate(-15.72 -76.11)" style="fill:#d63655"/><path d="M208.69,381.56c5.54-3.75,8.31-5.76,13.86-10l1.49-.22v21.44A175.17,175.17,0,0,0,208.69,381.56Z" transform="translate(-15.72 -76.11)" style="fill:#e94861"/><path d="M262.51,336.25c6.38-6.58,9.57-10,15.95-17.3a180.12,180.12,0,0,1,16.26,8.34Z" transform="translate(-15.72 -76.11)" style="fill:#e94861"/><path d="M340.64,360.13c3.52,3.19,5.28,4.83,8.79,8.23-3.51,5-5.27,7.4-8.79,12.11Z" transform="translate(-15.72 -76.11)" style="fill:#e94861"/><path d="M226,456.73l8.8,2.74c14.63-8,27.56-17.83,40.25-28.57,0,0,5.82-5.88,11-3.82,0,0-5.22-7.74-12.82-3.94C258.34,436.13,243.34,447.19,226,456.73Z" transform="translate(-15.72 -76.11)" style="fill:#e94861"/><path d="M354.57,455.48,345,453.75c-1.3-.24-2.36-1.85-2.36-3.59v-.31c0-1.74,1.06-3,2.36-2.78l9.58,1.52c1.3.21,2.37,1.87,2.37,3.68v.33C356.94,454.42,355.87,455.71,354.57,455.48Z" transform="translate(-15.72 -76.11)" style="fill:#373449"/><path d="M337.67,452.42l-5-.9a3.45,3.45,0,0,1-2.37-3.46v-.3c0-1.66,1.07-2.86,2.37-2.65l5,.8c1.31.2,2.37,1.78,2.37,3.5v.31C340,451.44,339,452.66,337.67,452.42Z" transform="translate(-15.72 -76.11)" style="fill:#373449"/><path d="M296.21,441.11l-9.95-1.65a2.67,2.67,0,0,1-2.08-2.59v-.22a1.84,1.84,0,0,1,2.08-1.94l9.95,1.46a2.69,2.69,0,0,1,2.08,2.68v.24A1.85,1.85,0,0,1,296.21,441.11Z" transform="translate(-15.72 -76.11)" style="fill:#373449"/><path d="M279.36,438.32l-5.37-.89A2.6,2.6,0,0,1,271.9,435v-.21a1.79,1.79,0,0,1,2.09-1.83l5.37.79a2.6,2.6,0,0,1,2.09,2.53v.22A1.78,1.78,0,0,1,279.36,438.32Z" transform="translate(-15.72 -76.11)" style="fill:#373449"/><path d="M297.85,441.39l-11.59-1.93a2.67,2.67,0,0,1-2.08-2.59v-.22a1.84,1.84,0,0,1,2.08-1.94l11.59,1.7a2.7,2.7,0,0,1,2.08,2.7v.23A1.86,1.86,0,0,1,297.85,441.39Z" transform="translate(-15.72 -76.11)" style="fill:#373449"/><path d="M308.91,457.65l-8.26-1.81a3.11,3.11,0,0,1-2.21-3v-.25a1.89,1.89,0,0,1,2.21-2.07l8.26,1.65a3.13,3.13,0,0,1,2.21,3.07v.26C311.12,457,310.12,457.92,308.91,457.65Z" transform="translate(-15.72 -76.11)" style="fill:#373449"/><path d="M321.22,475.14l-29.15-7.92a3.38,3.38,0,0,1-2.28-3.13v-.24a1.82,1.82,0,0,1,2.28-1.94l29.15,7.31a3.55,3.55,0,0,1,2.27,3.41v.28C323.49,474.48,322.47,475.48,321.22,475.14Z" transform="translate(-15.72 -76.11)" style="fill:#373449"/><path d="M286.18,465.62l-5.14-1.4a3.29,3.29,0,0,1-2.28-3V461a1.76,1.76,0,0,1,2.28-1.82l5.14,1.29a3.26,3.26,0,0,1,2.27,3.06v.24A1.77,1.77,0,0,1,286.18,465.62Z" transform="translate(-15.72 -76.11)" style="fill:#373449"/><path d="M270.37,461.32l-11.25-3.06a3.15,3.15,0,0,1-2.28-2.79v-.22a1.69,1.69,0,0,1,2.28-1.6l11.25,2.82a3.16,3.16,0,0,1,2.28,2.91v.23A1.7,1.7,0,0,1,270.37,461.32Z" transform="translate(-15.72 -76.11)" style="fill:#373449"/><path d="M218.72,417.28l-2.33-.25a2.57,2.57,0,0,1-2.49-2.17v-.19c0-1.05,1.12-1.82,2.49-1.7l2.33.19a2.53,2.53,0,0,1,2.49,2.19v.2C221.21,416.64,220.09,417.42,218.72,417.28Z" transform="translate(-15.72 -76.11)" style="fill:#373449"/><path d="M239,419.4,225.63,418a2.61,2.61,0,0,1-2.48-2.27v-.2a2.08,2.08,0,0,1,2.48-1.81l13.37,1.1a2.62,2.62,0,0,1,2.49,2.41v.22A2.1,2.1,0,0,1,239,419.4Z" transform="translate(-15.72 -76.11)" style="fill:#373449"/><path d="M199,386.26l-23.66,1.8c-1.08.09-2-.37-2-1v-.11c0-.64.88-1.24,2-1.35L199,383.36c1.08-.1,2,.45,2,1.22v.13C200.93,385.48,200.05,386.18,199,386.26Z" transform="translate(-15.72 -76.11)" style="fill:#373449"/><path d="M197.91,393.87l-13.27.38c-1.25,0-2.27-.58-2.27-1.36v-.15c0-.78,1-1.48,2.27-1.54l13.27-.66c1.25-.06,2.28.61,2.28,1.5v.15C200.19,393.08,199.16,393.83,197.91,393.87Z" transform="translate(-15.72 -76.11)" style="fill:#373449"/><path d="M198.66,441.83,187,438.65c-1.25-.34-2.27-1.27-2.27-2.07v-.14c0-.8,1-1.2,2.27-.89l11.71,2.94c1.25.31,2.27,1.29,2.27,2.18v.16C200.93,441.72,199.91,442.17,198.66,441.83Z" transform="translate(-15.72 -76.11)" style="fill:#373449"/><path d="M180.1,436.79l-4.48-1.22c-1.25-.34-2.27-1.22-2.27-2v-.13c0-.74,1-1.08,2.27-.77l4.48,1.12c1.25.32,2.27,1.22,2.27,2V436C182.37,436.76,181.35,437.13,180.1,436.79Z" transform="translate(-15.72 -76.11)" style="fill:#373449"/><path d="M192,361.69l-4.42,1.06c-1.41.34-2.56-.12-2.56-1v-.16c0-.9,1.15-1.95,2.56-2.32l4.42-1.17c1.41-.37,2.56.12,2.56,1.08v.17C194.52,360.29,193.37,361.35,192,361.69Z" transform="translate(-15.72 -76.11)" style="fill:#373449"/><path d="M279.18,318.08l-22.6,7.57c-1.33.44-2.42-.22-2.42-1.48V324a3.72,3.72,0,0,1,2.42-3.15l22.6-8.06a1.69,1.69,0,0,1,2.41,1.71v.25A3.79,3.79,0,0,1,279.18,318.08Z" transform="translate(-15.72 -76.11)" style="fill:#373449"/><path d="M248.17,328.46l-5.61,1.88c-1.33.44-2.41-.15-2.41-1.33v-.21a3.6,3.6,0,0,1,2.41-3l5.61-2c1.32-.47,2.41.15,2.41,1.39v.22A3.58,3.58,0,0,1,248.17,328.46Z" transform="translate(-15.72 -76.11)" style="fill:#373449"/><path d="M287.41,357s.3-10.35,9.09-20.74L223.15,354s-12.08,4.51-15.66,16.36Z" transform="translate(-15.72 -76.11)" style="fill:#fffefd"/></g><g style="opacity:0.4"><path d="M1285.59,354.66,1251,346.35a2.65,2.65,0,0,1-1.66-2.57h0c0-1.2.75-2,1.66-1.73l34.58,9.12a2.36,2.36,0,0,1,1.66,2.16h0A1.29,1.29,0,0,1,1285.59,354.66Z" transform="translate(-15.72 -76.11)" style="fill:#373449"/><path d="M1258.21,453l84.21-30.22s8.39-3.46,7.84-8.91l-.09-31.37a125.84,125.84,0,0,1-15.68-9.66s-1.48-9.58-16.33-13a210.62,210.62,0,0,1-17.89-17.44c-19.16,6.74-35.13,18.29-50.55,31.18v72.76S1250.27,454.74,1258.21,453Z" transform="translate(-15.72 -76.11)" style="fill:#373449"/><path d="M1263.37,447.73c9.91-14.75,20.15-29.28,32.28-42.31,0,0,4.15-3.86,8.12-.9A109.6,109.6,0,0,0,1336.33,423Z" transform="translate(-15.72 -76.11)" style="fill:#d63655"/><path d="M1339.93,421.63c-9.63-3.12-14.45-5.5-24.08-11.91,0,0-.92-.24,0-1.23,9.81-8.88,19.65-17.15,31.36-23.45v30.7S1346.2,420.19,1339.93,421.63Z" transform="translate(-15.72 -76.11)" style="fill:#e94861"/><path d="M1284.22,414.2A406,406,0,0,0,1259.41,449s-6.09,2.08-6.55-6.06V379.3C1262.26,391.76,1272.48,403.85,1284.22,414.2Z" transform="translate(-15.72 -76.11)" style="fill:#d63655"/><path d="M1269,394.26v-28.2l38.28,5.62.92-.69a8.27,8.27,0,0,1,7.29-8.61s14.29.57,16.14,11.14v18.59A136.91,136.91,0,0,0,1313.18,408c-2.77-2-4.15-3-6.92-5.3,0,0-6.18-6.36-14.11,2-2.25,2.79-3.38,4.23-5.63,7.22A169.15,169.15,0,0,1,1269,394.26Z" transform="translate(-15.72 -76.11)" style="fill:#fffefd"/><path d="M1301.23,370.67s.19-7.29,5.63-11.11l-45.38-11s-7.47-.21-9.68,14.8Z" transform="translate(-15.72 -76.11)" style="fill:#373449"/><path d="M1266.05,391.05V365.52l-.93-.14c-4.46,3.58-6.69,5.5-11.16,9.64C1258.8,381.86,1261.21,385.07,1266.05,391.05Z" transform="translate(-15.72 -76.11)" style="fill:#d63655"/><path d="M1334.58,375.75V390a96.86,96.86,0,0,1,11.9-7A126.38,126.38,0,0,1,1334.58,375.75Z" transform="translate(-15.72 -76.11)" style="fill:#d63655"/><path d="M1286.8,351.78l26.2,6.86c-5.24-4.81-7.86-7.4-13.1-13A103.86,103.86,0,0,0,1286.8,351.78Z" transform="translate(-15.72 -76.11)" style="fill:#d63655"/><path d="M1311.83,376.06s.37-11.87,10.94-9.16c0,0,6.89,2,8.61,6.61,0,0,.25-7.91-12.42-11.11,0,0-11.48-1.79-11.4,9.29L1269,365.92v5.17Z" transform="translate(-15.72 -76.11)" style="fill:#f2f0e7"/><path d="M1331.63,388.75V392a136.5,136.5,0,0,0-18.62,16c-3.09-2.15-4.63-3.31-7.72-5.8,0,0-5-4.3-11.88,1.23-2.85,3.25-4.27,4.95-7.11,8.51A170.33,170.33,0,0,1,1269,394.34v-5.46a176.81,176.81,0,0,0,17,17.63c2.54-2.6,3.82-3.85,6.37-6.24,0,0,5.63-6.43,14-1.61,2.75,2.23,4.12,3.28,6.86,5.26A130,130,0,0,1,1331.63,388.75Z" transform="translate(-15.72 -76.11)" style="fill:#f2f0e7"/><path d="M1317.33,407.27c8.23,6.39,12.34,8.91,20.57,12.61l4-1.24a11.68,11.68,0,0,0,5.25-3.55V385.15A140.69,140.69,0,0,0,1317.33,407.27Z" transform="translate(-15.72 -76.11)" style="fill:#e94861"/><path d="M1272.21,440.31l60-18.67c-10.22-4-18.78-10.15-27.58-16.55,0,0-3.84-.49-7,3.55C1288.36,418.6,1280.2,429.32,1272.21,440.31Z" transform="translate(-15.72 -76.11)" style="fill:#e94861"/><path d="M1252.86,442.43V379.3c1.47,1.93,2.21,2.88,3.69,4.74V444.6S1253.87,444.14,1252.86,442.43Z" transform="translate(-15.72 -76.11)" style="fill:#e94861"/><path d="M1256.55,384.15a233.3,233.3,0,0,0,25.36,28c-7.33,10.08-14.08,20.58-20.38,31.33,0,0-4,2.16-5,1Z" transform="translate(-15.72 -76.11)" style="fill:#d63655"/><path d="M1256.64,372.58c3.43-3,5.15-4.4,8.58-7.07l.92.13V385C1262.34,380.31,1260.44,377.82,1256.64,372.58Z" transform="translate(-15.72 -76.11)" style="fill:#e94861"/><path d="M1289.94,350.25a99.25,99.25,0,0,1,9.86-4.42c4,4.2,6,6.19,10.06,10Z" transform="translate(-15.72 -76.11)" style="fill:#e94861"/><path d="M1338.27,378.09c2.17,1.42,3.26,2.1,5.44,3.39-2.18,1.13-3.27,1.74-5.44,3Z" transform="translate(-15.72 -76.11)" style="fill:#e94861"/><path d="M1267.34,441.93l5.44-1.7c7.84-10.87,15.83-21.5,24.9-31.39,0,0,3.6-4.11,6.83-3.73,0,0-3.23-3.7-7.93-.51C1285.7,416.14,1276.38,428.94,1267.34,441.93Z" transform="translate(-15.72 -76.11)" style="fill:#e94861"/><path d="M1346.82,405.82l-5.78,1.05c-.85.15-1.54-.19-1.54-.75h0c0-.56.69-1.14,1.54-1.27l5.78-.92c.84-.13,1.53.17,1.53.69h0C1348.35,405.13,1347.66,405.67,1346.82,405.82Z" transform="translate(-15.72 -76.11)" style="fill:#373449"/><path d="M1336.36,407.71l-2.95.53c-.84.16-1.54-.22-1.54-.83h0c0-.61.7-1.21,1.54-1.35l2.95-.47c.85-.13,1.54.23,1.54.8h0C1337.9,407,1337.21,407.56,1336.36,407.71Z" transform="translate(-15.72 -76.11)" style="fill:#373449"/><path d="M1310.72,410.52l-6,1a1.07,1.07,0,0,1-1.35-1h0a1.57,1.57,0,0,1,1.35-1.45l6-.88a1.07,1.07,0,0,1,1.35,1h0A1.57,1.57,0,0,1,1310.72,410.52Z" transform="translate(-15.72 -76.11)" style="fill:#373449"/><path d="M1300.3,412.25l-3.2.53a1.1,1.1,0,0,1-1.35-1.09h0a1.59,1.59,0,0,1,1.35-1.52l3.2-.47a1.11,1.11,0,0,1,1.35,1.06h0A1.61,1.61,0,0,1,1300.3,412.25Z" transform="translate(-15.72 -76.11)" style="fill:#373449"/><path d="M1311.73,410.36l-7,1.16a1.07,1.07,0,0,1-1.35-1h0a1.57,1.57,0,0,1,1.35-1.45l7-1a1.08,1.08,0,0,1,1.36,1h0A1.57,1.57,0,0,1,1311.73,410.36Z" transform="translate(-15.72 -76.11)" style="fill:#373449"/><path d="M1318.58,415.36l-5,1.09c-.78.18-1.42-.24-1.42-.91h0a1.73,1.73,0,0,1,1.42-1.52l5-1c.78-.16,1.43.23,1.43.87h0A1.74,1.74,0,0,1,1318.58,415.36Z" transform="translate(-15.72 -76.11)" style="fill:#373449"/><path d="M1326.19,419.31l-17.9,4.86c-.81.22-1.48-.2-1.48-.93h0a1.94,1.94,0,0,1,1.48-1.69l17.9-4.49c.81-.2,1.47.13,1.47.74h0A1.88,1.88,0,0,1,1326.19,419.31Z" transform="translate(-15.72 -76.11)" style="fill:#373449"/><path d="M1304.51,425.2l-3,.82a1.06,1.06,0,0,1-1.47-1h0a2,2,0,0,1,1.47-1.77l3-.76a1.06,1.06,0,0,1,1.47,1h0A2,2,0,0,1,1304.51,425.2Z" transform="translate(-15.72 -76.11)" style="fill:#373449"/><path d="M1294.73,427.85l-6.82,1.86a1.12,1.12,0,0,1-1.48-1.14h0a2.06,2.06,0,0,1,1.48-1.91l6.82-1.71a1.11,1.11,0,0,1,1.48,1.07h0A2.05,2.05,0,0,1,1294.73,427.85Z" transform="translate(-15.72 -76.11)" style="fill:#373449"/><path d="M1262.77,408.05l-1.29.14c-.89.09-1.61-.73-1.61-1.82h0a2,2,0,0,1,1.61-2.12l1.29-.11a1.64,1.64,0,0,1,1.62,1.8h0A2,2,0,0,1,1262.77,408.05Z" transform="translate(-15.72 -76.11)" style="fill:#373449"/><path d="M1275.32,406.74l-8.12.85a1.59,1.59,0,0,1-1.61-1.76h0a2,2,0,0,1,1.61-2.05l8.12-.67a1.56,1.56,0,0,1,1.61,1.66h0A2,2,0,0,1,1275.32,406.74Z" transform="translate(-15.72 -76.11)" style="fill:#373449"/><path d="M1250.57,376.25l-14.51-1.11c-.71-.05-1.28-.91-1.28-1.89h0c0-1,.57-1.75,1.28-1.68l14.51,1.37a1.67,1.67,0,0,1,1.27,1.76h0C1251.84,375.6,1251.27,376.3,1250.57,376.25Z" transform="translate(-15.72 -76.11)" style="fill:#373449"/><path d="M1249.91,384.89l-8.07-.23c-.82,0-1.48-1-1.48-2.07h0c0-1.11.66-2,1.48-1.95l8.07.4a1.84,1.84,0,0,1,1.47,2h0A1.68,1.68,0,0,1,1249.91,384.89Z" transform="translate(-15.72 -76.11)" style="fill:#373449"/><path d="M1250.37,439.91l-7.11,1.93c-.81.22-1.47-.5-1.47-1.61h0a2.43,2.43,0,0,1,1.48-2.37l7.1-1.78c.81-.21,1.47.48,1.47,1.53h0A2.41,2.41,0,0,1,1250.37,439.91Z" transform="translate(-15.72 -76.11)" style="fill:#373449"/><path d="M1238.88,443l-2.62.72c-.82.22-1.48-.54-1.48-1.68h0a2.52,2.52,0,0,1,1.48-2.46l2.62-.65c.82-.21,1.48.54,1.48,1.65h0A2.51,2.51,0,0,1,1238.88,443Z" transform="translate(-15.72 -76.11)" style="fill:#373449"/><path d="M1246.22,345.19l-2.59-.62a2.71,2.71,0,0,1-1.66-2.65h0c0-1.24.75-2.06,1.66-1.82l2.59.68a2.73,2.73,0,0,1,1.66,2.63h0C1247.88,344.61,1247.13,345.41,1246.22,345.19Z" transform="translate(-15.72 -76.11)" style="fill:#373449"/><path d="M1300.17,345.6,1286.34,341a2.47,2.47,0,0,1-1.57-2.18h0a1.1,1.1,0,0,1,1.57-1.09l13.83,4.93a2.39,2.39,0,0,1,1.57,2h0C1301.74,345.46,1301,345.89,1300.17,345.6Z" transform="translate(-15.72 -76.11)" style="fill:#373449"/><path d="M1281,339.18l-3.32-1.11a2.54,2.54,0,0,1-1.57-2.28h0a1.13,1.13,0,0,1,1.57-1.19l3.32,1.19a2.54,2.54,0,0,1,1.57,2.24h0A1.13,1.13,0,0,1,1281,339.18Z" transform="translate(-15.72 -76.11)" style="fill:#373449"/><path d="M1305.34,368.79a10,10,0,0,1,5.63-8.2l-45.38-11s-7.48-.58-9.69,10.91Z" transform="translate(-15.72 -76.11)" style="fill:#fffefd"/></g><g style="opacity:0.4"><path d="M66.53,344.54,32,352.85c-.91.22-1.66-.12-1.66-.75h0c0-.64.75-1.35,1.66-1.59l34.58-9.13a1.22,1.22,0,0,1,1.66,1.16h0A2.22,2.22,0,0,1,66.53,344.54Z" transform="translate(-15.72 -76.11)" style="fill:#373449"/><path d="M39.14,415l84.21,30.22s8.4,1.8,7.84-11.75l-.09-74.9a185.61,185.61,0,0,0-15.68-13.76S114,328.33,99.1,332.9a112.46,112.46,0,0,0-17.9-9.5c-15.48,17-31.36,31.78-50.54,44.46V406.7S31.21,411.41,39.14,415Z" transform="translate(-15.72 -76.11)" style="fill:#373449"/><path d="M44.31,414.54c12.11-5.52,22.18-13.36,32.28-21.89a5.68,5.68,0,0,1,8.12.9,463.16,463.16,0,0,1,32.56,45.68Z" transform="translate(-15.72 -76.11)" style="fill:#d63655"/><path d="M120.86,440.08c-7.6-12.33-15.36-24.46-24.07-36.05a1.1,1.1,0,0,1,0-1.72c11.64-11.49,21.67-24.1,31.36-37.24v69.65S127.14,443.55,120.86,440.08Z" transform="translate(-15.72 -76.11)" style="fill:#e94861"/><path d="M65.15,398.07a105.41,105.41,0,0,1-24.81,15.05s-6.09-2.08-6.55-6.85V370.63C45.57,378.4,55.4,388,65.15,398.07Z" transform="translate(-15.72 -76.11)" style="fill:#d63655"/><path d="M49.93,379.64V359.51l38.28-5.61.93-1.16a18.69,18.69,0,0,1,7.28-14.64s14.3-8.68,16.14,9.16v32.88a199.07,199.07,0,0,1-18.44,20.48C91.35,397,90,395.25,87.2,391.9c0,0-6.18-7.46-14.11-.74-2.25,2.31-3.38,3.41-5.63,5.52A160.61,160.61,0,0,0,49.93,379.64Z" transform="translate(-15.72 -76.11)" style="fill:#fffefd"/><path d="M82.17,354.65a30.64,30.64,0,0,1,5.63-15.48l-45.38,11A17.84,17.84,0,0,0,32.73,362Z" transform="translate(-15.72 -76.11)" style="fill:#373449"/><path d="M47,377.32V359.87l-.92.14c-4.46,3.51-6.7,5.12-11.16,8.07A111.63,111.63,0,0,1,47,377.32Z" transform="translate(-15.72 -76.11)" style="fill:#d63655"/><path d="M115.51,350v26.35c4.76-5.9,7.14-9,11.9-15.71C122.65,356.09,120.27,354,115.51,350Z" transform="translate(-15.72 -76.11)" style="fill:#d63655"/><path d="M67.74,341.33l26.19-6.86a111.38,111.38,0,0,0-13.1-7.15C75.6,333.3,73,336.1,67.74,341.33Z" transform="translate(-15.72 -76.11)" style="fill:#d63655"/><path d="M92.76,358.12s.37-15.92,10.95-17.4a8,8,0,0,1,8.61,6.65s.24-14.14-12.42-11.25a18.35,18.35,0,0,0-11.4,17.69L50,359.4v3.69Z" transform="translate(-15.72 -76.11)" style="fill:#f2f0e7"/><path d="M112.56,374.21v5.65a197.51,197.51,0,0,1-18.62,20.67c-3.08-3.95-4.63-5.84-7.71-9.46a9.37,9.37,0,0,0-11.89-1c-2.84,2.75-4.26,4.05-7.1,6.5A161.11,161.11,0,0,0,50,379.69V375.8a151.71,151.71,0,0,1,17,15.82c2.55-1.83,3.83-2.79,6.37-4.82,0,0,5.64-6.85,14,.25,2.74,3.13,4.11,4.76,6.86,8.15A208.29,208.29,0,0,0,112.56,374.21Z" transform="translate(-15.72 -76.11)" style="fill:#f2f0e7"/><path d="M98.27,401.13c7.38,10.84,14.19,22.06,20.57,33.51l4,1.24s3.14,1.28,5.26-2.72V365.33A373.6,373.6,0,0,1,98.27,401.13Z" transform="translate(-15.72 -76.11)" style="fill:#e94861"/><path d="M53.14,414.21l60,18.67a355.37,355.37,0,0,0-27.57-38.43,6.87,6.87,0,0,0-7,2.12C70.45,403.12,62.49,409.46,53.14,414.21Z" transform="translate(-15.72 -76.11)" style="fill:#e94861"/><path d="M33.79,406V370.63c1.48.94,2.22,1.43,3.69,2.45V409A15.25,15.25,0,0,1,33.79,406Z" transform="translate(-15.72 -76.11)" style="fill:#e94861"/><path d="M37.48,373.15c9.39,6.55,17.33,14.43,25.37,22.5-8.16,7.41-12.23,10.45-20.39,15.17,0,0-4-.69-5-1.89Z" transform="translate(-15.72 -76.11)" style="fill:#d63655"/><path d="M37.58,366.27c3.43-2.32,5.14-3.56,8.57-6.2l.93-.14V373.2A109.75,109.75,0,0,0,37.58,366.27Z" transform="translate(-15.72 -76.11)" style="fill:#e94861"/><path d="M70.87,338.24c3.95-4.07,5.92-6.21,9.87-10.7A112.76,112.76,0,0,1,90.8,332.7Z" transform="translate(-15.72 -76.11)" style="fill:#e94861"/><path d="M119.2,353c2.18,2,3.27,3,5.45,5.09-2.18,3.08-3.27,4.58-5.45,7.49Z" transform="translate(-15.72 -76.11)" style="fill:#e94861"/><path d="M48.27,412.77l5.45,1.7c9.16-4.81,17-11.13,24.9-17.67,0,0,3.6-3.64,6.83-2.37,0,0-3.23-4.78-7.94-2.43A131.14,131.14,0,0,1,48.27,412.77Z" transform="translate(-15.72 -76.11)" style="fill:#e94861"/><path d="M127.75,412,122,410.94a2.31,2.31,0,0,1-1.54-2.32h0c0-1.13.7-1.94,1.54-1.81l5.78.92a2.32,2.32,0,0,1,1.54,2.39h0C129.29,411.3,128.6,412.14,127.75,412Z" transform="translate(-15.72 -76.11)" style="fill:#373449"/><path d="M117.3,410.1l-3-.53a2.25,2.25,0,0,1-1.54-2.25h0c0-1.08.69-1.86,1.54-1.72l3,.47a2.23,2.23,0,0,1,1.54,2.27h0C118.84,409.46,118.14,410.25,117.3,410.1Z" transform="translate(-15.72 -76.11)" style="fill:#373449"/><path d="M91.66,403.1l-6-1a1.73,1.73,0,0,1-1.35-1.68h0a1.18,1.18,0,0,1,1.35-1.25l6,.88A1.75,1.75,0,0,1,93,401.79h0A1.19,1.19,0,0,1,91.66,403.1Z" transform="translate(-15.72 -76.11)" style="fill:#373449"/><path d="M81.23,401.38,78,400.84a1.68,1.68,0,0,1-1.36-1.6h0A1.16,1.16,0,0,1,78,398.05l3.19.47a1.69,1.69,0,0,1,1.36,1.64h0A1.17,1.17,0,0,1,81.23,401.38Z" transform="translate(-15.72 -76.11)" style="fill:#373449"/><path d="M92.67,403.27l-7-1.17a1.73,1.73,0,0,1-1.35-1.68h0a1.18,1.18,0,0,1,1.35-1.25l7,1A1.74,1.74,0,0,1,94,402h0A1.2,1.2,0,0,1,92.67,403.27Z" transform="translate(-15.72 -76.11)" style="fill:#373449"/><path d="M99.51,413.33l-5-1.09a2,2,0,0,1-1.43-1.94h0A1.23,1.23,0,0,1,94.53,409l5,1a2,2,0,0,1,1.43,2h0C100.94,412.88,100.3,413.51,99.51,413.33Z" transform="translate(-15.72 -76.11)" style="fill:#373449"/><path d="M107.12,424.14l-17.89-4.86a2.19,2.19,0,0,1-1.48-2h0A1.18,1.18,0,0,1,89.23,416l17.89,4.49a2.3,2.3,0,0,1,1.48,2.21h0C108.6,423.72,107.93,424.36,107.12,424.14Z" transform="translate(-15.72 -76.11)" style="fill:#373449"/><path d="M85.45,418.25l-3-.82a2.13,2.13,0,0,1-1.47-2h0a1.14,1.14,0,0,1,1.47-1.18l3,.76a2.12,2.12,0,0,1,1.47,2h0A1.14,1.14,0,0,1,85.45,418.25Z" transform="translate(-15.72 -76.11)" style="fill:#373449"/><path d="M75.67,415.6l-6.83-1.86a2,2,0,0,1-1.47-1.81h0a1.09,1.09,0,0,1,1.47-1l6.83,1.71a2,2,0,0,1,1.47,1.88h0A1.1,1.1,0,0,1,75.67,415.6Z" transform="translate(-15.72 -76.11)" style="fill:#373449"/><path d="M43.71,388.36l-1.29-.13a1.68,1.68,0,0,1-1.62-1.41h0c0-.69.73-1.18,1.62-1.11l1.29.1a1.65,1.65,0,0,1,1.61,1.43h0C45.32,388,44.6,388.45,43.71,388.36Z" transform="translate(-15.72 -76.11)" style="fill:#373449"/><path d="M56.25,389.67l-8.11-.85a1.69,1.69,0,0,1-1.62-1.47h0a1.35,1.35,0,0,1,1.62-1.17l8.11.66a1.7,1.7,0,0,1,1.62,1.57h0A1.36,1.36,0,0,1,56.25,389.67Z" transform="translate(-15.72 -76.11)" style="fill:#373449"/><path d="M31.5,369.19,17,370.29c-.7.06-1.27-.24-1.27-.65h0c0-.42.57-.81,1.27-.88L31.5,367.4c.71-.07,1.28.28,1.28.78h0C32.78,368.68,32.21,369.13,31.5,369.19Z" transform="translate(-15.72 -76.11)" style="fill:#373449"/><path d="M30.84,373.89l-8.07.23c-.81,0-1.47-.37-1.47-.88h0c0-.51.66-1,1.47-1l8.07-.4c.81,0,1.48.4,1.48,1h0C32.32,373.38,31.65,373.87,30.84,373.89Z" transform="translate(-15.72 -76.11)" style="fill:#373449"/><path d="M31.3,403.54l-7.1-1.93c-.81-.22-1.47-.83-1.47-1.34h0c0-.52.66-.78,1.47-.58l7.1,1.78c.82.21,1.48.84,1.48,1.42h0C32.78,403.47,32.12,403.76,31.3,403.54Z" transform="translate(-15.72 -76.11)" style="fill:#373449"/><path d="M19.82,400.42l-2.63-.71c-.81-.22-1.47-.8-1.47-1.28h0c0-.47.66-.7,1.47-.5l2.63.66c.81.21,1.48.79,1.48,1.3h0C21.3,400.4,20.63,400.64,19.82,400.42Z" transform="translate(-15.72 -76.11)" style="fill:#373449"/><path d="M27.15,354l-2.58.62c-.91.22-1.66-.08-1.66-.66h0c0-.59.75-1.27,1.66-1.51l2.58-.68c.92-.24,1.66.07,1.66.7h0C28.81,353.09,28.07,353.78,27.15,354Z" transform="translate(-15.72 -76.11)" style="fill:#373449"/><path d="M81.11,327l-13.83,4.63c-.87.29-1.57-.14-1.57-1h0a2.4,2.4,0,0,1,1.57-2l13.83-4.94a1.11,1.11,0,0,1,1.57,1.12h0A2.48,2.48,0,0,1,81.11,327Z" transform="translate(-15.72 -76.11)" style="fill:#373449"/><path d="M61.93,333.45l-3.32,1.11c-.87.29-1.57-.1-1.57-.86h0a2.33,2.33,0,0,1,1.57-1.94l3.32-1.19c.86-.31,1.56.1,1.56.9h0A2.32,2.32,0,0,1,61.93,333.45Z" transform="translate(-15.72 -76.11)" style="fill:#373449"/><path d="M86.28,351.06a22.78,22.78,0,0,1,5.62-12.83l-45.38,11s-7.47,2.79-9.68,10.12Z" transform="translate(-15.72 -76.11)" style="fill:#fffefd"/></g><path d="M769.08,239.24s1.24-50.69,37.92-88.91H501.15s-50.36,9.36-65.28,88.91Z" transform="translate(-15.72 -76.11)" style="fill:#373449"/><path d="M460.72,630.49H922.53s46-4.56,43-56.65L965,282.49l-86-64.24s-8.09-71.32-89.52-68.29L691.38,76.11,414.19,283.5v306S417.22,625.43,460.72,630.49Z" transform="translate(-15.72 -76.11)" style="fill:#373449"/><path d="M489.05,614.81l177-176s22.76-20.23,44.51,0l178.55,176Z" transform="translate(-15.72 -76.11)" style="fill:#d63655"/><path d="M908.88,613.29l-132-131.51s-5.06-2.53,0-8.1l172-166.41V582.43S943.27,618.85,908.88,613.29Z" transform="translate(-15.72 -76.11)" style="fill:#e94861"/><path d="M603.36,477.73,467.3,614.3s-33.38,0-35.91-35.41V306.76Z" transform="translate(-15.72 -76.11)" style="fill:#d63655"/><path d="M519.91,372.52V240H729.82l5.06-5.06s-2.53-43.5,40-63.73c0,0,78.4-22.26,88.51,55.64V368L762.19,467.61l-37.94-38.44s-33.88-37.93-77.39,3.54L616,467.61Z" transform="translate(-15.72 -76.11)" style="fill:#fffefd"/><polygon points="488 281.23 488 163.38 482.95 163.38 421.74 211.94 488 281.23" style="fill:#d63655"/><polygon points="863.83 164.39 863.83 275.67 929.08 213.45 863.83 164.39" style="fill:#d63655"/><polygon points="601.81 74.86 745.46 74.86 673.64 19.73 601.81 74.86" style="fill:#d63655"/><path d="M754.77,263.6s2-76.21,60-72.84c0,0,37.76,3.27,47.21,36.37,0,0,1.34-60.48-68.12-61.32,0,0-62.94,6.09-62.5,74l-211.32-.48V263.6Z" transform="translate(-15.72 -76.11)" style="fill:#f2f0e7"/><path d="M863.35,342.51v24.28L761.24,467.28l-42.32-41.82s-27.54-26.3-65.16.68l-39,41.14-94.72-94.42V347.23L613.45,439l34.93-30.35s30.91-36.42,76.59-3.71l37.62,36.76Z" transform="translate(-15.72 -76.11)" style="fill:#f2f0e7"/><path d="M785,467.11l112.8,126.45H919.5s17.2,1,28.83-17.2V308.28Z" transform="translate(-15.72 -76.11)" style="fill:#e94861"/><path d="M537.5,593.57H866.64L715.44,442.82s-21.08-5-38.57,15.53Z" transform="translate(-15.72 -76.11)" style="fill:#e94861"/><path d="M431.39,576.87V306.76l20.23,19.73V591S437,585.47,431.39,576.87Z" transform="translate(-15.72 -76.11)" style="fill:#e94861"/><path d="M451.62,327l139.1,138.59L478.93,593.06s-21.75,4-27.31-2.53Z" transform="translate(-15.72 -76.11)" style="fill:#d63655"/><polygon points="436.41 200.3 483.45 163.88 488.51 163.88 488.51 253.41 436.41 200.3" style="fill:#e94861"/><polygon points="619.01 62.22 673.13 20.74 728.27 62.22 619.01 62.22" style="fill:#e94861"/><polygon points="884.06 179.06 913.9 202.33 884.06 231.16 884.06 179.06" style="fill:#e94861"/><path d="M510.8,594.07h29.84L677.21,459.52s19.73-21.24,37.43-16.69c0,0-17.7-23.27-43.5-8.09Z" transform="translate(-15.72 -76.11)" style="fill:#e94861"/><rect x="890.8" y="399.93" width="48.56" height="16.86" rx="2.37" ry="2.37" style="fill:#373449"/><rect x="848.99" y="399.93" width="33.05" height="16.86" rx="2.37" ry="2.37" style="fill:#373449"/><rect x="692.52" y="390.49" width="47.88" height="14.84" rx="2.08" ry="2.08" style="fill:#373449"/><rect x="650.88" y="390.49" width="32.37" height="14.84" rx="2.08" ry="2.08" style="fill:#373449"/><rect x="692.52" y="390.49" width="53.45" height="14.84" rx="2.08" ry="2.08" style="fill:#373449"/><rect x="740.91" y="430.96" width="42.99" height="15.68" rx="2.2" ry="2.2" style="fill:#373449"/><rect x="711.57" y="470.91" width="114.31" height="16.19" rx="2.27" ry="2.27" style="fill:#373449"/><rect x="674.14" y="470.91" width="32.88" height="16.19" rx="2.27" ry="2.27" style="fill:#373449"/><rect x="599.79" y="470.91" width="53.62" height="16.19" rx="2.27" ry="2.27" style="fill:#373449"/><rect x="454.11" y="340.41" width="24.78" height="17.7" rx="2.49" ry="2.49" style="fill:#373449"/><rect x="485.47" y="340.41" width="62.22" height="17.7" rx="2.49" ry="2.49" style="fill:#373449"/><path d="M723.5,224s1-32.88,30.85-57.66H505.49s-41,6.07-53.11,57.66Z" transform="translate(-15.72 -76.11)" style="fill:#373449"/><path d="M630.62,363.55H615.94a2.19,2.19,0,0,1-2-1.19l-30-59.05h-.32v58a2.18,2.18,0,0,1-2.18,2.18H561.85a2.18,2.18,0,0,1-2.18-2.18V283a2.17,2.17,0,0,1,2.18-2.18h36.76a2.18,2.18,0,0,1,2,1.24l22.29,47,.33.42,22.34-47.37a2.19,2.19,0,0,1,2-1.25h36.67a2.17,2.17,0,0,1,2.18,2.18v78.37a2.18,2.18,0,0,1-2.18,2.18H664.66a2.19,2.19,0,0,1-2.18-2.18v-58h-.42l-29.49,59A2.19,2.19,0,0,1,630.62,363.55Z" transform="translate(-15.72 -76.11)" style="fill:#d63655"/><path d="M797.54,338.17q0,13.36-6,19.37t-19.1,6H682.75a.9.9,0,0,1-.9-.9V346.55a.9.9,0,0,1,.9-.91h78.83a32.12,32.12,0,0,0,4-.2,11.43,11.43,0,0,0,2.25-.49,6.36,6.36,0,0,0,4.33-3.92,6.22,6.22,0,0,0,.27-2.1,6,6,0,0,0-1.32-4.07,7.56,7.56,0,0,0-3.42-2.2,17.69,17.69,0,0,0-4.38-.85c-1.5,0-3.35-.15-5.55-.15-1.33-.07-5.09-.21-11.26-.4l-18.22-.63-7-.32c-2.18-.11-4-.24-5.55-.37-7.76-.42-13.35-3-16.64-7.67q-3.57-5.32-3.57-15.69c0-8.56,1.63-15,5-19.27s8.76-6.42,16.42-6.42H821.51a.9.9,0,0,1,.9.91v16.07a.9.9,0,0,1-.9.91H730.75a30.58,30.58,0,0,0-3.7.2,10.31,10.31,0,0,0-2.89.78,5.69,5.69,0,0,0-2.9,2.65,6.49,6.49,0,0,0-.63,3.1,5.17,5.17,0,0,0,2.72,5.2,20.06,20.06,0,0,0,7.9,1.25h4.33c1.26,0,4.94.23,11.1.43q12.63.42,17.51.63l8.27.39a49.1,49.1,0,0,1,5.55.37q11.54.63,16.2,8.43A34.26,34.26,0,0,1,797.54,338.17Z" transform="translate(-15.72 -76.11)" style="fill:#d63655"/><path d="M571.69,365.1,571.58,295a2,2,0,0,1,2-2h17a3.57,3.57,0,0,1,2.91,1.85l29.28,57.78c.48,1,1.3,1,1.86,0l29.89-57.79a3.6,3.6,0,0,1,2.92-1.85h15.54a2,2,0,0,1,2,2v57.33a2,2,0,0,0,2,2l93,.15c25.78,0,21.84-31.93,0-31.93-11.6,0-47.8-1.85-47.8-1.85-17.49,0-18.46-30.62,1.73-30.68h99.36" transform="translate(-15.72 -76.11)" style="fill:none;stroke:#fff;stroke-width:0.990000009536743px"/></svg>